<?xml version="1.0" encoding="utf-8"?>
<!-- Generator: Adobe Illustrator 25.2.1, SVG Export Plug-In . SVG Version: 6.00 Build 0)  -->
<svg version="1.1" id="Layer_1" xmlns="http://www.w3.org/2000/svg" xmlns:xlink="http://www.w3.org/1999/xlink" x="0px" y="0px"
	 viewBox="0 0 400 400" style="enable-background:new 0 0 400 400;" xml:space="preserve">
<style type="text/css">
	.st0{fill:none;stroke:#5ADBFF;stroke-width:4;stroke-miterlimit:10;}
	.st1{fill:#5ADBFF;stroke:#5ADBFF;stroke-miterlimit:10;}
</style>
<path class="st0" d="M393.29,299.44l-193.24,96.85L8.41,297l1.59-196.15L203.24,4l191.64,99.29L393.29,299.44z"/>
<path class="st1" d="M152.39,251.13c10.56,6.27,25.98,11.5,42.22,11.5c24.09,0,38.16-12.28,38.16-30.05
	c0-16.46-9.74-25.87-34.37-35.02c-29.77-10.19-48.18-25.09-48.18-49.91c0-27.44,23.55-47.82,59-47.82c18.67,0,32.2,4.18,40.32,8.62
	L243.06,127c-5.96-3.14-18.14-8.36-34.64-8.36c-24.9,0-34.38,14.37-34.38,26.39c0,16.46,11.1,24.56,36.27,33.97
	c30.85,11.5,46.55,25.87,46.55,51.74c0,27.18-20.84,50.7-63.87,50.7c-17.59,0-36.81-4.97-46.55-11.24L152.39,251.13z"/>
</svg>
